<svg enable-background="new 0 0 1799.6 1200.87" viewBox="0 0 1799.6 1200.87" xmlns="http://www.w3.org/2000/svg"><path d="m467.08 961.4c-5.1-5.08-2.63-40.77-1.83-46.5 3.2-22.96 6.4-45.93 9.6-68.89 6.49-46.58 12.98-93.15 19.46-139.73.74-5.32 1.48-10.65 2.23-15.97 1.54-8.86 10.33-15.6 19.52-14.98 9.2.61 15.46 8.36 13.92 17.22-19.35 87.71-42.86 175.58-57.18 263.75-.19 1.19-.41 2.43-1.22 3.46-1.93 2.4-3.39 2.74-4.5 1.64z" fill="#e3e5fc"/><path d="m682.19 960.47c4.98-5.23 1.7-40.84.77-46.54-3.72-22.86-7.44-45.72-11.16-68.58-7.54-46.36-15.09-92.73-22.63-139.09-.86-5.3-1.72-10.6-2.59-15.9-1.74-8.81-10.68-15.28-19.86-14.38-9.18.89-15.26 8.83-13.52 17.63 21.34 87.09 46.83 174.22 63.15 261.92.22 1.18.47 2.42 1.3 3.42 1.99 2.36 3.46 2.66 4.54 1.52z" fill="#e3e5fc"/><path d="m653.95 716.67h-161.85c-14.93 0-27.15-12.22-27.15-27.15 0-14.93 12.22-27.15 27.15-27.15h161.85c14.93 0 27.15 12.22 27.15 27.15.01 14.94-12.21 27.15-27.15 27.15z" fill="#a7adff"/><path d="m1046.85 525.61 57.51-129.61c.91-2.05 3.33-2.98 5.38-2.07l1 .44c2.05.91 2.98 3.33 2.07 5.38l-57.52 129.61c-.91 2.05-3.33 2.98-5.38 2.07l-1-.44c-2.04-.91-2.97-3.33-2.06-5.38z" fill="#4b369d"/><path d="m1102.42 392.2-44.86-134.51c-.71-2.13.45-4.45 2.58-5.16l1.04-.35c2.13-.71 4.45.45 5.16 2.58l44.86 134.51c.71 2.13-.45 4.45-2.58 5.16l-1.04.35c-2.13.7-4.45-.46-5.16-2.58z" fill="#4b369d"/><circle cx="1108.88" cy="396.93" fill="#a7adff" r="11.36"/><path d="m1046.4 517.67c-20.98 0-37.98 15.88-37.98 35.48h75.96c0-19.6-17.01-35.48-37.98-35.48z" fill="#e3e5fc"/><path d="m1068.94 242.27c-11.34-11.34-47.7 6.63-81.21 40.14l41.07 41.07c33.51-33.51 51.48-69.87 40.14-81.21z" fill="#f3aa02"/><path d="m984.35 330.73c-.49 0-.99-.19-1.35-.58-.72-.75-.69-1.93.06-2.65l17.41-16.64c.75-.72 1.94-.69 2.65.06.72.75.69 1.93-.06 2.65l-17.41 16.64c-.36.35-.83.52-1.3.52z" fill="#e3e5fc"/><path d="m1004 348.1c-.31 0-.63-.08-.92-.24-.9-.51-1.22-1.65-.71-2.55l11.79-21c.5-.9 1.64-1.22 2.55-.72.9.51 1.22 1.65.71 2.55l-11.79 21c-.34.62-.98.96-1.63.96z" fill="#e3e5fc"/><path d="m965.19 311.34c-.75 0-1.46-.45-1.75-1.19-.38-.96.1-2.05 1.06-2.43l22.45-8.73c.97-.37 2.05.1 2.43 1.07s-.1 2.05-1.06 2.43l-22.45 8.73c-.22.08-.45.12-.68.12z" fill="#e3e5fc"/><path d="m1245.5 759.87c-.02 0-63.25 0-63.25 0 .81 5.39 1.6 10.86 2.43 16.33h57.24c.77-9.09 1.9-16.33 3.58-16.33z" fill="#4b369d"/><path d="m1194.69 822.99c1.18 1.19 2.78 1.22 4.26 1.18 8.54-.19 17.1.35 25.65.3 8.07-.04 14.75.61 15.59-12.8.18-2.83.52-21.37 1.72-35.48h-57.24c2.16 14.39 4.54 28.89 8.12 42.56.42 1.59.9 3.23 1.9 4.24z" fill="#f3aa02"/><circle cx="1213.87" cy="797.35" fill="#fff" r="9.99"/><path d="m1204.99 752.28s-20.98-14.08-6.04-22.98 12.71-21.21 6.04-23.21c-6.67-1.99 13.95-10.15 13.95-10.15s-13.95 4.73-5.79 10.15c8.15 5.42 28.91 18.76 13.34 23.21-15.56 4.45 15.72 11.81 5.63 19.99-10.08 8.18-27.13 2.99-27.13 2.99z" fill="#e3e5fc"/><path d="m674.39 390.16-16.78 50.66-44.47 4.55s33.85-28.81 38.35-61.45 22.9 6.24 22.9 6.24z" fill="#d4a79a"/><path d="m745.87 314.72s5.6 14-12.66 47.28-40.43 59.9-50.57 54.83c-28.06-14.02-32.75-37.82-38.13-58.63-6.6-25.51 33.13-72.52 33.13-72.52l27.14-6.31z" fill="#eac2ab"/><path d="m780.6 314.03c.29-.5.57-1.02.84-1.55 5.54-10.88 7.64-25.07 5.29-37.07-3.98-20.34-24.41-22.5-41.57-18.82-7.84 1.68-15.18 6.81-23.48 4.15-6.19-1.98-9.32-7.79-14.03-11.74-5.4-4.53-12.16-7.19-19.21-7.93-14.61-1.53-28.05 6.03-36.06 17.98-3.29 4.92-5.4 10.58-5.72 16.49-1.46-2.05-3.54-2.72-6.03-2.24-20.39 3.97-19.22 33.57-18.32 49.1.75 12.97.02 29.1 7.92 40.21 3.15 4.43 11.41 11.48 16.43 6.56 4.48-4.39.98-17.84 2.18-23.6 1.68-8.09.94-46.87 42.2-43.95 16.4 1.16 27.96 29.21 43.38 34.09 15.69 4.97 37.44-6.66 46.18-21.68z" fill="#4b369d"/><path d="m652.55 334.85s-11.44-12.7-10.03 6.83c1.42 19.52 11.68 23.46 11.68 23.46z" fill="#eac2ab"/><path d="m869.5 807.42 26.47 65.42-19.64 11.66-23.8-70s9.86-8.01 16.97-7.08z" fill="#eac2ab"/><path d="m986.72 882.17s-14.66 8.92-44.32 17.45c-29.65 8.54-63.01 16.6-69.97 13.1s-18.19-43.08-8.16-45.14c10.03-2.05 16.72 12.59 31.91-4.81 13.01-14.91 29.14 4.87 56.59 5.41s38.56.73 33.95 13.99z" fill="#f3aa02"/><path d="m669.97 619.61c13.36 1.51 46.76 17.12 59.07 21.74 26.42 9.92 66.07 67.02 82.15 87.23 17.73 22.28 34.59 30.08 50.53 53.31 11.15 16.11 33.04 20.27 44.33 34.96 8.6 11.19 4.65 11.31-8.54 18.47-18.09 9.82-71.51 61.65-79.74 29.98-3.07-11.83-24.98-36.93-32.96-46.8-18.73-23.17-13.38-58.68-29.44-83.23-7.82-11.95-13.44-25.99-27.07-33.41-11.44-6.23-25.97-6.31-39.61-6.17-18.8.18-29.36-32.49-48.17-32.31-24.79.24-50.44 24.3-70.32 11.86-33.42-20.93 11.84-22.73 30.54-23.46 37.02-1.43 32.44-36.31 69.23-32.17z" fill="#4b369d"/><path d="m794.78 849.28 31.55 63.08-20 12.72-29.01-67.77s9.92-8.52 17.46-8.03z" fill="#eac2ab"/><path d="m917.3 932.17s-16.1 7.59-47.91 13.56-67.48 11.17-74.52 7.14-15.76-44.04-5.06-45.24c10.69-1.2 16.59 13.81 33.89-2.11 14.83-13.64 30.23 7.22 59.03 10.03 28.79 2.8 40.45 3.91 34.57 16.62z" fill="#fdc510"/><path d="m640.52 612.99c13.36 1.91 25.69 7.47 38 13.34 26.42 12.6 48.51 47.07 64.59 72.73 17.73 28.31 34.59 57.25 50.53 86.75 6.05 11.2 8.53 23.74 14.15 35.02 9.3 18.66 57.37 44.17 26.08 65.28-20.08 13.54-51.82 7.02-74.46 6.94-1.18 0-2.45-.04-3.37-.77-1.09-.87-1.32-2.41-1.47-3.8-3.14-29.47-6.14-54.12-19.49-80.81-18.73-29.43-31.73-49.89-47.79-81.06-7.82-15.18-7.29-27.66-20.91-37.08-11.44-7.92-23.24-5.55-36.87-5.38-18.8.23-34.94-.23-53.74 0-24.79.3-40.98-.5-54.38-22.08-25.67-41.35-7.41-40.6 11.28-41.52 37.01-1.84 71.06-12.83 107.85-7.56z" fill="#5a54ff"/><path d="m670.61 470.1s15.68 59.94 21.74 61.27c5.08 1.11 11.29.02 16.41-.21 10.51-.48 21.02-1.16 31.51-1.87 18.17-1.24 36.88-1.68 54.88-4.63 11-1.8 31.17-4.49 39.5-12.56 11.31-10.94 31.47 14.2 37.18 20.89.83.97 1.62 2.51.68 3.36-.43.39-1.06.43-1.64.4-4.08-.17-7.68-2.57-11.04-4.87 3.05 3.45 5.58 7.36 7.47 11.56-3.72-1.42-6.94-3.91-10.61-5.44-14.77-6.14-26.74 15.35-43.29 7.7-11.1-5.13-23.62-1.62-35.16-.34-10.39 1.15-20.79 2.22-31.2 3.23-19.46 1.9-39.81 5.2-59.41 4.44-1.2-.05-2.56.09-3.73-.3-6.16-2.08-17.9-28.48-26.62-51.5-5.5-14.52-12.63-30.14-7.52-52.87 4.7-20.84 26.59-11.43 20.85 21.74z" fill="#eac2ab"/><path d="m644.05 512.22c2.86-11.55 6.53-22.66 10.74-32.95 6.6-16.13 18.43-38.07 8.33-55.33-1.42-2.43-2.98-4.88-5.35-6.7-26.38-20.26-67.31 18.38-84.37 38.61-21.5 25.49-22.26 36.37-31.37 66.33-10.12 33.27-19.2 68.11-34.53 99.78-1.65 3.42-3.01 8.09.51 10.38 1.6 1.04 3.71 1.16 5.68 1.16 13.69-.02 26.81-3.78 39.7-7.4 20.42-5.73 19.52-7.98 40.89-4.25 8.39 1.46 16.36-1.04 24.86-1.11 2.1-.02 10.44-.99 12.22-1.82 13.9-6.47-3.05-10.26-3.74-11.96-12.79-31.65 8-60.69 16.43-94.74z" fill="#d7384e"/><path d="m676.5 489.81s2.51-72.53-30-67.2-19.04 87.08-19.04 87.08l53.11-9.45z" fill="#f44e4e"/><path d="m741.67 961.23c-4.89-6.86-.76-57.38.31-65.52 4.28-32.6 8.56-65.21 12.84-97.81 8.68-66.13 17.36-132.26 26.04-198.39.99-7.56 1.98-15.12 2.98-22.68 1.96-12.59 11.11-22.64 20.34-22.33s15.17 10.86 13.21 23.45c-23.53 124.96-51.24 250.41-69.73 375.72-.25 1.69-.53 3.46-1.39 4.96-2.04 3.52-3.53 4.09-4.6 2.6z" fill="#e3e5fc"/><path d="m1070.39 961.23c4.89-6.86.76-57.38-.31-65.52-4.28-32.6-8.56-65.21-12.84-97.81-8.68-66.13-17.36-132.26-26.04-198.39-.99-7.56-1.98-15.12-2.98-22.68-1.96-12.59-11.11-22.64-20.34-22.33s-15.17 10.86-13.21 23.45c23.53 124.96 51.24 250.41 69.73 375.72.25 1.69.53 3.46 1.39 4.96 2.05 3.52 3.54 4.09 4.6 2.6z" fill="#e3e5fc"/><path d="m1213.16 573.86h-544.05c-5.7 0-10.36-4.66-10.36-10.36 0-5.7 4.66-10.36 10.36-10.36h544.05c5.7 0 10.36 4.66 10.36 10.36 0 5.7-4.66 10.36-10.36 10.36z" fill="#a7adff"/><path d="m1120.3 518.5c3.62-2.23 5.35-7.12 3.93-11.13-2.32-6.56-8.31-4.35-12.58-7.79-5.02-4.05 1.05-10.43.72-15.22-.37-5.27-5.11-10.35-6.53-15.44-3.27-11.7 10.02-2.97 13.82-4.33 1.59-.57 2.63-2.17 2.99-3.81.93-4.2-.84-7.6 1.46-11.58 2.22-3.84 5.51-5.58 4.56-10.79-.54-2.96-2.36-5.66-2.31-8.66.01-.86.26-1.83 1.01-2.25.57-.32 1.28-.23 1.9-.02 2.05.72 3.39 2.63 5.04 4.04s4.3 2.29 5.88.8c1.05-.99 1.16-2.59 1.37-4.02.39-2.58 2.2-4.37 4.44-2.88 2.45 1.62 1.51 8.02 1.14 10.32-.59 3.64-1.47 7.42-.39 10.94 1.79 5.83 6.67-.7 8.8-2.63 1.74-1.58 4.66-2.53 6.34-.88 3.33 3.29-2.03 7.68-2.73 10.8-.34 1.48.1 3.26 1.42 4.02 3.86 2.24 7.12-1.75 7.7 4.2.4 4.07-3.29 7.96-1 12.03 2 3.56 8.65 5.07 6.02 10.07-1.62 3.07-8.57 2.93-8.2 7.29.24 2.84 4.52 4.14 4.52 6.99 0 2.15-2.5 3.42-4.65 3.53s-4.41-.39-6.39.45c-2.25.95-3.55 3.71-2.85 6.05.6 2.03 2.5 3.89 1.9 5.92-.72 2.45-4.11 2.54-6.63 2.15-10.28-1.62-21.31-2.69-30.7 1.83z" fill="#fdc510"/><path d="m1139.75 518.7c-1.04 0-1.87-.84-1.87-1.87v-45.95c0-1.03.84-1.87 1.87-1.87s1.87.84 1.87 1.87v45.95c0 1.03-.83 1.87-1.87 1.87z" fill="#fff"/><path d="m1139.75 500.81c-.42 0-.83-.14-1.18-.42-.81-.65-.93-1.83-.28-2.64l12.05-14.86c.66-.81 1.84-.92 2.64-.28.8.65.93 1.83.27 2.64l-12.05 14.86c-.37.47-.9.7-1.45.7z" fill="#fff"/><path d="m1139.75 488.27c-.43 0-.86-.14-1.21-.44l-14.36-12.09c-.79-.67-.89-1.85-.23-2.64.67-.79 1.85-.89 2.64-.23l14.36 12.09c.79.67.89 1.85.23 2.64-.37.44-.9.67-1.43.67z" fill="#fff"/><path d="m1118.29 512.06c1.89 12.56 3.59 25.7 6.77 37.81.26 1.01.58 2.07 1.21 2.71.76.77 1.79.78 2.74.76 5.48-.13 10.98.23 16.47.2 5.18-.03 9.47.39 10.01-8.22.19-2.98.66-33.26 3.41-33.26-.01 0-40.61 0-40.61 0z" fill="#d7384e"/><path d="m1155.19 519.57h-33.19c-4.13 0-7.51-3.38-7.51-7.51 0-4.13 3.38-7.51 7.51-7.51h33.19c4.13 0 7.51 3.38 7.51 7.51 0 4.13-3.38 7.51-7.51 7.51z" fill="#f44e4e"/><path d="m921.76 552.01h-167.77c-2.24 0-4.08-1.83-4.08-4.08 0-2.24 1.83-4.08 4.08-4.08h167.77c2.24 0 4.08 1.83 4.08 4.08-.01 2.25-1.84 4.08-4.08 4.08z" fill="#4b369d"/><path d="m917.57 546.27 83.89-145.29c1.12-1.94 3.63-2.61 5.57-1.49 1.94 1.12 2.61 3.63 1.49 5.57l-83.89 145.29c-1.12 1.94-3.63 2.61-5.57 1.49-1.94-1.12-2.61-3.63-1.49-5.57z" fill="#4b369d"/><path d="m1294.36 865.3h-168.62c-9.45 0-17.17-7.73-17.17-17.17v-6.47c0-9.45 7.73-17.17 17.17-17.17h168.62c9.45 0 17.17 7.73 17.17 17.17v6.47c0 9.45-7.73 17.17-17.17 17.17z" fill="#a7adff"/><path d="m1318.47 909.68h-168.62c-9.45 0-17.17-7.73-17.17-17.17v-6.47c0-9.45 7.73-17.17 17.17-17.17h168.62c9.45 0 17.17 7.73 17.17 17.17v6.47c.01 9.44-7.72 17.17-17.17 17.17z" fill="#a7adff"/><path d="m1294.36 954.49h-168.62c-9.45 0-17.17-7.73-17.17-17.17v-6.47c0-9.45 7.73-17.17 17.17-17.17h168.62c9.45 0 17.17 7.73 17.17 17.17v6.47c0 9.44-7.73 17.17-17.17 17.17z" fill="#a7adff"/><g fill="#fff"><circle cx="1125.11" cy="844.58" r="4.68"/><circle cx="1293.73" cy="844.58" r="4.68"/><circle cx="1148.53" cy="887.36" r="4.68"/><circle cx="1317.15" cy="887.36" r="4.68"/><circle cx="1126.05" cy="933.84" r="4.68"/><circle cx="1294.67" cy="933.84" r="4.68"/></g></svg>