<svg enable-background="new 0 0 1799.6 1200.87" viewBox="0 0 1799.6 1200.87" xmlns="http://www.w3.org/2000/svg"><path d="m776.02 462.94-27.52 81.52-71.75 6.92s54.84-46.13 62.39-98.72 36.88 10.28 36.88 10.28z" fill="#d4a79a"/><path d="m881.12 309.74s8.9 22.63-20.84 76.11-65.73 96.2-82.05 87.93c-45.11-22.86-52.45-61.29-60.93-94.88-10.4-41.19 54.08-116.61 54.08-116.61l43.82-9.93z" fill="#eac2ab"/><path d="m939.98 309.54c5-13.62 4.2-28.91-5.75-43.63-2.88-4.26-7.07-7.62-11.95-8.48-3.67-.65-7.66.11-11.04-1.48-10.15-4.74-7.05-20.79-16.04-26.73-6.71-4.43-15.63.27-23.64-.06-6.05-.25-11.48-3.41-16.85-6.2-15.12-7.85-27.85-19.71-43.76-26.29-13.43-5.55-28.34-8.03-42.78-4.79-15.07 3.38-28.08 13.69-37.27 27.23-5.49 8.1-9.22 17.78-9.37 27.6.12-8.07-15.66-3.77-18.69-1.41-11.85 9.22-20.34 34.03-19.54 48.82.63 11.71 3.96 22.86 4.24 34.64.61 25.77-2.16 68.67 36 69.37-1.01-13.12-1.92-26.49.85-39.51 4.95-23.19 15.26-53.84 36.68-67.02 45.23-27.81 60.45 44.53 94.66 58.22 31.85 12.77 72.92-9.44 84.25-40.28z" fill="#4b369d"/><path d="m736.11 316.98s-12.05-24.78-18.59 6.09c-6.53 30.88 7.61 41.57 7.61 41.57z" fill="#eac2ab"/><path d="m812.45 753.6c-3.27-42.3-9.12-87.04-18.91-129.38-7.57-32.73-14.68-77.55-46.88-96.2-60.31-34.94-99.12 51.32-109.77 96.72-12.14 51.72-10.6 106.21-11.16 159-.5 47.34-7.16 99.51-.72 146.04 1.14 8.21 4.14 16.63 10.57 21.86 16.35 13.3 33.21-4.33 46.97-12.17 12.87-7.34 26.5-6.13 40.17-11.06 12.01-4.33 17.92-13.31 27.97-20.29 26.36-18.32 54.74 11.15 83.31 5.63 62.1-12 14.69 4.93-10.3-119.83-2.55-12.71-10.09-25.26-11.25-40.32z" fill="#f44e4e"/><path d="m973.89 660.36c23.59-15.21 32.73-49.35 54.55-67.65 8.89-7.45 19.43-11.87 29.88-15.96 14.92-5.85 29.99-11.24 45.17-16.16-.95 7.76-6.93 13.51-13.14 16.94s-13.08 5.38-18.86 9.68c-2.55 1.89-4.89 4.31-6.21 7.42-2.97 6.99-.09 15.39-1.34 23.02-2.35 14.31-17.03 20.15-28.28 27.15-23.23 14.45-38.24 42.92-62.45 55.12 0 0-181.68 150.85-204.08 146.68s-53.31-209.92-53.31-209.92-21.32-106.04 34.69-55.24 21.53 219.55 49.21 202.13c27.66-17.43 174.17-123.21 174.17-123.21z" fill="#eac2ab"/><path d="m790.84 665.44s-6.43-130.7-60.64-119.91-19.4 157.5-19.4 157.5l88.46-18.94z" fill="#d7384e"/><path d="m913.09 985.21h-365.88c-16.28 0-29.6-13.32-29.6-29.6v-41.73c0-16.28 13.32-29.6 29.6-29.6h365.88c16.28 0 29.6 13.32 29.6 29.6v41.73c-.01 16.28-13.33 29.6-29.6 29.6z" fill="#e3e5fc"/><path d="m721.37 1010.42h-244.67c-10.89 0-19.79-8.91-19.79-19.79v-27.9c0-10.89 8.91-19.79 19.79-19.79h244.67c10.89 0 19.79 8.91 19.79 19.79v27.9c0 10.89-8.91 19.79-19.79 19.79z" fill="#f44e4e"/><path d="m708.73 978.34-.9 1.1c-.35.43-.99.49-1.42.14l-20.41-16.62c-.43-.35-.49-.99-.14-1.42l.9-1.1c.35-.43.99-.49 1.42-.14l20.41 16.62c.42.35.49.99.14 1.42z" fill="#fff"/><path d="m708.73 977.47-.9-1.1c-.35-.43-.99-.49-1.42-.14l-20.41 16.62c-.43.35-.49.99-.14 1.42l.9 1.1c.35.43.99.49 1.42.14l20.41-16.62c.42-.36.49-1 .14-1.42z" fill="#fff"/><path d="m680.23 978.34-.9 1.1c-.35.43-.99.49-1.42.14l-20.41-16.62c-.43-.35-.49-.99-.14-1.42l.9-1.1c.35-.43.99-.49 1.42-.14l20.41 16.62c.43.35.49.99.14 1.42z" fill="#fff"/><path d="m680.23 977.47-.9-1.1c-.35-.43-.99-.49-1.42-.14l-20.41 16.62c-.43.35-.49.99-.14 1.42l.9 1.1c.35.43.99.49 1.42.14l20.41-16.62c.43-.36.49-1 .14-1.42z" fill="#fff"/><path d="m649.13 978.34-.9 1.1c-.35.43-.99.49-1.42.14l-20.41-16.62c-.43-.35-.49-.99-.14-1.42l.9-1.1c.35-.43.99-.49 1.42-.14l20.41 16.62c.43.35.49.99.14 1.42z" fill="#fff"/><path d="m649.13 977.47-.9-1.1c-.35-.43-.99-.49-1.42-.14l-20.41 16.62c-.43.35-.49.99-.14 1.42l.9 1.1c.35.43.99.49 1.42.14l20.41-16.62c.43-.36.49-1 .14-1.42z" fill="#fff"/><path d="m1300.14 697.55-370.38 128.41c-23.5 0-42.55-19.05-42.55-42.55v-182.88c0-23.5 19.05-42.55 42.55-42.55l370.38-128.41c23.5 0 42.55 19.05 42.55 42.55v182.88c0 23.5-19.05 42.55-42.55 42.55z" fill="#a7adff" opacity=".26"/><path d="m1277.28 686.76-370.38 128.41c-23.5 0-42.55-19.05-42.55-42.55v-182.87c0-23.5 19.05-42.55 42.55-42.55l370.38-128.41c23.5 0 42.55 19.05 42.55 42.55v182.87c0 23.5-19.05 42.55-42.55 42.55z" fill="#a7adff" opacity=".13"/><path d="m1054.41 632.09-114.28 39.62c-7.25 0-13.13-5.88-13.13-13.13v-56.43c0-7.25 5.88-13.13 13.13-13.13l114.28-39.62c7.25 0 13.13 5.88 13.13 13.13v56.43c0 7.25-5.88 13.13-13.13 13.13z" fill="#fff" opacity=".39"/><path d="m1313.48 368.38-114.28 39.62c-7.25 0-13.13-5.88-13.13-13.13v-56.43c0-7.25 5.88-13.13 13.13-13.13l114.28-39.62c7.25 0 13.13 5.88 13.13 13.13v56.43c0 7.25-5.88 13.13-13.13 13.13z" fill="#a7adff"/><path d="m1270.16 353.41-108.2 37.51c-6.87 0-12.43-5.57-12.43-12.43v-53.42c0-6.87 5.57-12.43 12.43-12.43l108.2-37.51c6.87 0 12.43 5.57 12.43 12.43v53.42c0 6.87-5.57 12.43-12.43 12.43z" fill="#e3e5fc"/><path d="m1307.4 788.87-108.2 37.51c-6.87 0-12.43-5.57-12.43-12.43v-53.42c0-6.87 5.57-12.43 12.43-12.43l108.2-37.51c6.87 0 12.43 5.57 12.43 12.43v53.42c0 6.87-5.56 12.43-12.43 12.43z" fill="#e3e5fc"/><path d="m1127.85 807.07-114.28 39.62c-7.25 0-13.13-5.88-13.13-13.13v-56.42c0-7.25 5.88-13.13 13.13-13.13l114.28-39.62c7.25 0 13.13 5.88 13.13 13.13v56.43c0 7.24-5.88 13.12-13.13 13.12z" fill="#a7adff"/><g fill="#fff"><path d="m1054.41 735.21-114.28 39.62c-7.25 0-13.13-5.88-13.13-13.13v-56.43c0-7.25 5.88-13.13 13.13-13.13l114.28-39.62c7.25 0 13.13 5.88 13.13 13.13v56.43c0 7.25-5.88 13.13-13.13 13.13z" opacity=".51"/><path d="m1109.3 700.2c-2.79 0-5.08-2.29-5.08-5.08v-85.18c0-2.79 2.29-5.08 5.08-5.08 2.79 0 5.08 2.29 5.08 5.08v85.18c0 2.79-2.28 5.08-5.08 5.08z" opacity=".51"/><path d="m1136.63 533.6c-.94-2.63.45-5.55 3.08-6.49l135.16-48.23c2.63-.94 5.55.45 6.49 3.08.94 2.63-.45 5.55-3.08 6.49l-135.16 48.23c-2.63.94-5.55-.45-6.49-3.08z" opacity=".51"/><path d="m1136.63 552.02c-.94-2.63.45-5.55 3.08-6.49l135.16-48.23c2.63-.94 5.55.45 6.49 3.08.94 2.63-.45 5.55-3.08 6.49l-135.16 48.23c-2.63.93-5.55-.45-6.49-3.08z" opacity=".51"/><path d="m1136.63 570.43c-.94-2.63.45-5.55 3.08-6.49l135.16-48.23c2.63-.94 5.55.45 6.49 3.08.94 2.63-.45 5.55-3.08 6.49l-135.16 48.23c-2.63.94-5.55-.45-6.49-3.08z" opacity=".51"/><path d="m1136.63 588.85c-.94-2.63.45-5.55 3.08-6.49l135.16-48.23c2.63-.94 5.55.45 6.49 3.08.94 2.63-.45 5.55-3.08 6.49l-135.16 48.23c-2.63.93-5.55-.45-6.49-3.08z" opacity=".51"/><path d="m1136.63 607.26c-.94-2.63.45-5.55 3.08-6.49l135.16-48.23c2.63-.94 5.55.45 6.49 3.08.94 2.63-.45 5.55-3.08 6.49l-135.16 48.23c-2.63.94-5.55-.45-6.49-3.08z" opacity=".51"/><path d="m1136.63 625.67c-.94-2.63.45-5.55 3.08-6.49l135.16-48.23c2.63-.94 5.55.45 6.49 3.08.94 2.63-.45 5.55-3.08 6.49l-135.16 48.23c-2.63.94-5.55-.45-6.49-3.08z" opacity=".51"/><path d="m1136.63 644.09c-.94-2.63.45-5.55 3.08-6.49l135.16-48.23c2.63-.94 5.55.45 6.49 3.08.94 2.63-.45 5.55-3.08 6.49l-135.16 48.23c-2.63.93-5.55-.45-6.49-3.08z" opacity=".51"/><path d="m1136.63 662.5c-.94-2.63.45-5.55 3.08-6.49l135.16-48.23c2.63-.94 5.55.45 6.49 3.08.94 2.63-.45 5.55-3.08 6.49l-135.16 48.23c-2.63.94-5.55-.45-6.49-3.08z" opacity=".51"/><path d="m1136.63 680.92c-.94-2.63.45-5.55 3.08-6.49l135.16-48.23c2.63-.94 5.55.45 6.49 3.08.94 2.63-.45 5.55-3.08 6.49l-135.16 48.23c-2.63.93-5.55-.45-6.49-3.08z" opacity=".51"/><path d="m1136.63 699.33c-.94-2.63.45-5.55 3.08-6.49l135.16-48.23c2.63-.94 5.55.45 6.49 3.08.94 2.63-.45 5.55-3.08 6.49l-135.16 48.23c-2.63.94-5.55-.45-6.49-3.08z" opacity=".51"/></g><path d="m1075.28 386.78c1.26-.78 2.58-1.48 3.92-2.1 17.85-8.19 39.03-.33 47.23 17.52 8.19 17.85.33 39.03-17.52 47.22l-3.56-7.76c13.57-6.23 19.54-22.33 13.32-35.9-6.23-13.57-22.33-19.54-35.9-13.32-1.02.47-2.03 1.01-2.99 1.6z" fill="#e3e5fc"/><path d="m1096.6 450.37 15.76 1.48-6.6-14.4z" fill="#e3e5fc"/><path d="m1093.58 456.15c-1.26.78-2.58 1.48-3.92 2.1-17.85 8.19-39.04.33-47.23-17.52s-.33-39.03 17.52-47.22l3.56 7.76c-13.57 6.23-19.54 22.33-13.32 35.9 6.23 13.57 22.33 19.54 35.9 13.32 1.02-.47 2.03-1.01 2.99-1.6z" fill="#e3e5fc"/><path d="m1072.27 392.56-15.77-1.48 6.6 14.39z" fill="#e3e5fc"/><circle cx="1109.3" cy="557.47" fill="#f44e4e" opacity=".36" r="26.09"/><circle cx="1109.3" cy="557.47" fill="#f44e4e" r="13.05"/><circle cx="1109.3" cy="557.47" fill="#f44e4e" opacity=".36" r="18.45"/></svg>