<svg enable-background="new 0 0 1799.6 1200.87" viewBox="0 0 1799.6 1200.87" xmlns="http://www.w3.org/2000/svg" xmlns:xlink="http://www.w3.org/1999/xlink"><linearGradient id="a"><stop offset="0" stop-color="#a7adff"/><stop offset="1" stop-color="#e3e5fc"/></linearGradient><linearGradient id="b" gradientUnits="userSpaceOnUse" x1="888.3677" x2="843.4068" xlink:href="#a" y1="904.8155" y2="742.3433"/><linearGradient id="c" gradientUnits="userSpaceOnUse" x1="1076.2408" x2="1013.6533" xlink:href="#a" y1="688.0284" y2="461.8595"/><path d="m1080.33 558.8s59.79 95.82 116.93 148.61 123.65 106.87 83.37 206.18-159 139.98-371.3 134.79-287.26-6.32-333.82-111.64 108.4-128.94 214.25-160.96 290.57-216.98 290.57-216.98z" fill="#e3e5fc"/><path d="m1090.54 767.98s29.12 112.4-74.7 139.08c-103.82 26.69-297.54 22.76-370.47-29.17s445.17-109.91 445.17-109.91z" fill="url(#b)" opacity=".49"/><path d="m1360.81 962.56c10.28-6.33 15.18-20.2 11.16-31.58-6.58-18.6-23.59-12.33-35.68-22.1-14.24-11.5 2.98-29.59 2.03-43.17-1.04-14.94-14.49-29.37-18.54-43.81-9.29-33.19 28.44-8.42 39.2-12.29 4.5-1.62 7.45-6.14 8.49-10.82 2.64-11.93-2.38-21.57 4.15-32.86 6.31-10.9 15.63-15.82 12.94-30.62-1.52-8.38-6.69-16.06-6.56-24.58.04-2.44.73-5.18 2.86-6.37 1.62-.91 3.64-.66 5.39-.05 5.81 2.04 9.63 7.46 14.31 11.47s12.2 6.49 16.69 2.27c2.99-2.81 3.28-7.35 3.89-11.41 1.09-7.32 6.23-12.4 12.61-8.17 6.95 4.61 4.29 22.76 3.24 29.27-1.66 10.32-4.18 21.04-1.11 31.04 5.07 16.54 18.93-1.99 24.97-7.47 4.95-4.49 13.22-7.18 17.97-2.49 9.46 9.33-5.75 21.8-7.75 30.64-.96 4.21.28 9.25 4.02 11.41 10.95 6.34 20.2-4.96 21.86 11.91 1.14 11.56-9.32 22.58-2.83 34.14 5.67 10.1 24.54 14.39 17.08 28.56-4.58 8.7-24.3 8.31-23.26 20.69.68 8.07 12.81 11.73 12.82 19.83.01 6.1-7.09 9.7-13.18 10.01s-12.51-1.11-18.12 1.27c-6.37 2.7-10.06 10.53-8.09 17.17 1.72 5.77 7.09 11.02 5.4 16.8-2.03 6.95-11.66 7.2-18.81 6.09-29.22-4.57-60.51-7.62-87.15 5.22z" fill="#fdc510"/><path d="m1415.99 959.68c-1.04 0-1.87-.84-1.87-1.87v-130.37c0-1.03.84-1.87 1.87-1.87 1.04 0 1.87.84 1.87 1.87v130.36c0 1.04-.83 1.88-1.87 1.88z" fill="#fff"/><path d="m1415.99 908.94c-.42 0-.83-.14-1.18-.42-.8-.65-.93-1.83-.27-2.64l34.19-42.15c.66-.81 1.84-.92 2.64-.27s.93 1.83.27 2.64l-34.19 42.15c-.38.45-.91.69-1.46.69z" fill="#fff"/><path d="m1415.99 873.34c-.43 0-.86-.14-1.21-.44l-40.75-34.29c-.79-.67-.89-1.85-.23-2.64.67-.79 1.85-.89 2.64-.23l40.75 34.29c.79.67.89 1.85.23 2.64-.37.45-.9.67-1.43.67z" fill="#fff"/><path d="m1355.11 944.29c5.36 35.63 10.19 72.9 19.21 107.28.75 2.86 1.63 5.86 3.45 7.7 2.15 2.17 5.07 2.21 7.76 2.15 15.56-.36 31.15.64 46.71.55 14.71-.08 26.86 1.11 28.4-23.32.53-8.47 1.87-94.37 9.68-94.37-.03.01-115.21.01-115.21.01z" fill="#978cff"/><path d="m1459.8 965.58h-94.17c-11.71 0-21.3-9.58-21.3-21.3 0-11.71 9.58-21.3 21.3-21.3h94.17c11.71 0 21.3 9.58 21.3 21.3 0 11.72-9.59 21.3-21.3 21.3z" fill="#a7adff"/><path d="m1005.86 183.38s12.34 27.42-6.94 44.3-45.49 3.52-70.93 18.98-22.7 33.78-11.03 74.57c13.88 48.52 29.04 47.07 42.67 50.58 13.63 3.52 17.7 41.49 19.24 59.07s3.85 29.53-44.72 53.44-22.07 60.48-17.2 107.88c5.39 52.43-56.82 82.67-67.61 95.33s-36.24 14.77-50.12-11.95 56.65-46.39 50.49-89.28c-6.17-42.89-43.83-71.75 9.37-113.94s42.69-75.93 24.96-110.38-26.21-47.81-11.57-92.11-.77-30.94 18.5-66.1c19.29-35.15 89.45-73.83 114.89-20.39z" fill="#4b369d"/><path d="m972.31 391.49 3.87 72.19 56.51 21.79s-33.98-49.72-28.22-93.99c5.76-44.26-32.16.01-32.16.01z" fill="#d4a79a"/><path d="m1103.27 625.68s-3.75-6.87-14.99-42.15-15.3-48.4-30.91-82.54-48.09-55.47-48.09-55.47l-40.59-2.19s-5 .31-28.41 19.67c-23.42 19.36-45.9 74.63-45.9 74.63l-9.99 109.91 70.26 51.83 49.66 17.9c-2.39-3.19-4.32-6.57-5.52-10.15-8.32-24.73 19.56-161.69 20.5-173.87s24.53 103.98 24.53 103.98l20.43-5.93 14.02 44.67 8.77-45.61z" fill="#f44e4e"/><path d="m1081.1 685.01-2.84-9.04-4.53 23.56z" fill="url(#c)"/><path d="m1043.8 637.23s-23.59-116.16-24.53-103.98-28.82 149.14-20.5 173.87c1.2 3.58 3.13 6.96 5.52 10.15l51.09 18.41 18.35-36.16 4.53-23.56-14.02-44.67z" fill="#fdc510"/><path d="m1043.8 637.23s-23.59-116.16-24.53-103.98-28.82 149.14-20.5 173.87c1.2 3.58 3.13 6.96 5.52 10.15l51.09 18.41 18.35-36.16 4.53-23.56-14.02-44.67z" fill="#d7384e"/><path d="m629.78 593.55 286.86 13.84 55.67 53.92-267.94-6.75z"/><path d="m900.28 616.09-258.98-17.49c-7 .54-13.07-4.17-13.56-10.54l-52.19-140.02c-.49-6.36 4.78-11.96 11.77-12.5l258.98 17.5c7-.54 13.07 4.17 13.56 10.54l52.19 140.02c.5 6.35-4.78 11.95-11.77 12.49z" fill="#e3e5fc"/><ellipse cx="740.43" cy="531.07" fill="#a7adff" rx="26.23" ry="30.6" transform="matrix(.2124 -.9772 .9772 .2124 64.2235 1141.814)"/><path d="m511.77 842.19-73.23 107.25 33.34 28.17 69.76-116.44c0-.01-15.99-18-29.87-18.98z" fill="#d4a79a"/><path d="m290.23 1009.26s28.17 9.62 82.15 13.62c53.98 4.01 114.23 6.01 125.18-2s17.99-76.12 0-76.12-24.99 26.04-56.72 2.8c-27.18-19.91-48.9 17.63-96.23 27.64s-66.5 14.03-54.38 34.06z" fill="#f3aa02"/><path d="m967.6 726.22c-6.47-12.17-41.49-5.31-83.46-20.92-41.98-15.61-69.09-48.4-116.78-86.18s-44.43-31.23-65.01-32.79-46.06 54.02-60.44 83.38c-30.27 61.82-68.58 117.06-125.81 153-17.39 10.92-94.01 52.46-106.81 69.86-26.96 36.62 105.59 36.93 140.25 41.16 34.31 4.18 53.55-15.31 67.43-46.11 15.84-35.13 33.17-69.51 50.48-103.89 8.66-17.2 17.36-34.39 25.85-51.68 3.66-7.45 11.58-34.49 20.41-37.86 27.16-10.34 63.01 72.45 70.63 91.05 15.35 37.47 71.54 81.19 112.37 85.56s71.54-22.79 84.93-62.45c13.4-39.66-14.04-82.13-14.04-82.13z" fill="#4b369d"/><path d="m651.46 850.32-73.23 107.25 33.34 28.17 69.76-116.44c-.01-.01-15.99-18-29.87-18.98z" fill="#eac2ab"/><path d="m429.92 1017.39s28.17 9.62 82.15 13.62c53.98 4.01 114.23 6.01 125.18-2s17.99-76.12 0-76.12-24.99 26.04-56.72 2.8c-27.18-19.91-48.9 17.63-96.23 27.64s-66.51 14.03-54.38 34.06z" fill="#fdc510"/><path d="m1073.6 726.22c-6.18-12.17-39.66-5.31-79.78-20.92s-66.04-48.4-111.63-86.18-42.47-31.23-62.14-32.79-44.03 54.02-57.77 83.38c-42.27 90.31-129.26 150.92-208.43 206.68-4.92 3.46-10.44 8.27-9.42 14.2.52 3.02 2.68 5.46 4.89 7.59 29.37 28.35 84.39 41.1 123.93 39.25 39.81-1.86 61.42-35.08 76.46-67.93 26.9-58.77 53.18-119.33 85.86-175.11 12.28-20.94 51.42 63.6 54.82 71.47 20.27 47 60.51 98.79 115.46 104.94 39.03 4.37 68.38-22.79 81.19-62.45 12.79-39.66-13.44-82.13-13.44-82.13z" fill="#5a54ff"/><path d="m921.82 237.82s-30.18 22.26-18.17 72.26 49.36 92.7 64.43 89.69c41.67-8.32 56.28-37.77 70.73-63.04 17.72-30.99-17.46-106.59-17.46-106.59l-33.23-17.92z" fill="#eac2ab"/><path d="m981.96 215.73s20.97 7.03 39.4 36.56 6.34 34.35 6.34 73.94c0 11.57-2.17 22.97-8.44 32.83-4.55 7.16-11.04 12.8-15.75 19.82-5.95 8.86-7.85 18.86-7.37 29.43 1.01 22.35 4.58 40.91 24.43 53.53 21.46 13.64 31.47 31.86 37.11 56.48 6.75 29.48 55.35 46.16 72.31 34.91s-33.63-3.74-23.6-52.25c10.02-48.52 13.46-69.11-15.84-82.59s-15.3-17.04.12-46.57-24.33-29.17-8.64-80.57c18.11-59.33 1.7-125.45-86.97-107.17s-13.1 31.65-13.1 31.65z" fill="#4b369d"/><path d="m960.37 272.19c25.44-15.47 19.28-27.64 38.56-44.51 19.27-16.88 6.94-44.3 6.94-44.3-25.44-53.44-95.6-14.77-114.88 20.39s-3.85 21.8-18.5 66.1c-10.1 30.53-9.2 46.37-1.86 64.55l41.47 16.79c-16.79-63.7 29.13-67.39 48.27-79.02z" fill="#4b369d"/><path d="m1063.61 683.13s0 17.17-6.56 14.05-68.07-41.53-76.19-50.58c-8.12-9.06-27.17-41.84-28.1-48.4-.94-6.56 2.19-6.87-10.62-5-12.8 1.87-35.91 9.06-32.47 13.11 3.43 4.06 13.11 1.25 13.11 1.25s-11.34 7.18-5.83 8.12 21.75-2.19 21.75 2.81-.94 21.86 2.81 30.29 8.43 11.24 20.61 14.05 14.33 1.87 24.34 12.18 65.9 59.95 73.08 62.45 10.3 6.87 19.05-9.06 14.99-28.1 15.61-53.08-2.19-49.02-2.19-49.02l-27.79 5c.02 0 2.51 28.1-.61 51.83z" fill="#eac2ab"/><path d="m1153.51 365.94c4.98-22.82 16.1-45.57 24.26-67.48 4.34-11.64 13.87-27.34 14.84-39.81.32-4.09 4.22-7.12 8.71-6.77l166.34-11.24c4.49.35 7.88 3.94 7.56 8.03l-33.52 89.93c-.32 4.09-4.22 7.12-8.71 6.77l-134.15 8.57c-8.22 4.99-21.26 9.98-29.49 14.95-9.13 5.51-20.41 17.99-15.84-2.95z" fill="#e3e5fc"/><path d="m1273.89 308.68 54.05-2.35c3.64-.16 6.48-3.26 6.32-6.9-.16-3.64-3.26-6.48-6.9-6.32l-54.05 2.35c-3.64.16-6.48 3.26-6.32 6.9.16 3.63 3.26 6.47 6.9 6.32z" fill="#fff"/><path d="m1235.02 286.29 97.92-4.25c3.64-.16 6.48-3.26 6.32-6.9-.16-3.64-3.26-6.48-6.9-6.32l-97.92 4.25c-3.64.16-6.48 3.26-6.32 6.9.16 3.63 3.26 6.48 6.9 6.32z" fill="#fff"/><path d="m666.55 386.38c-5.76-26.42-18.63-52.75-28.09-78.11-5.02-13.47-16.06-31.64-17.18-46.08-.37-4.73-4.88-8.24-10.08-7.83l-192.54-13.01c-5.2.4-9.12 4.56-8.75 9.29l38.8 104.1c.37 4.73 4.88 8.24 10.08 7.83l155.28 9.93c9.52 5.77 24.6 11.56 34.14 17.31 10.57 6.37 23.63 20.82 18.34-3.43z" fill="#e3e5fc"/><path d="m527.21 320.1-62.56-2.72c-4.21-.18-7.5-3.78-7.32-7.99.18-4.21 3.78-7.5 7.99-7.32l62.56 2.72c4.21.18 7.5 3.78 7.32 7.99-.19 4.21-3.78 7.5-7.99 7.32z" fill="#fff"/><path d="m572.2 294.19-113.35-4.92c-4.21-.18-7.5-3.78-7.32-7.99.18-4.21 3.78-7.5 7.99-7.32l113.35 4.92c4.21.18 7.5 3.78 7.32 7.99-.19 4.21-3.78 7.5-7.99 7.32z" fill="#fff"/><g opacity=".72"><path d="m772.26 232.27c-3.71-17.01-12-33.96-18.08-50.29-3.23-8.67-10.34-20.37-11.06-29.67-.24-3.05-3.14-5.3-6.49-5.04l-123.97-8.37c-3.35.26-5.87 2.94-5.64 5.98l24.98 67.02c.24 3.05 3.14 5.3 6.49 5.04l99.98 6.39c6.13 3.72 15.84 7.44 21.98 11.14 6.81 4.11 15.21 13.41 11.81-2.2z" fill="#e3e5fc"/><g fill="#fff"><path d="m682.54 189.59-40.28-1.75c-2.71-.12-4.83-2.43-4.71-5.14.12-2.71 2.43-4.83 5.14-4.71l40.28 1.75c2.71.12 4.83 2.43 4.71 5.14-.12 2.71-2.43 4.83-5.14 4.71z"/><path d="m711.51 172.91-72.98-3.17c-2.71-.12-4.83-2.43-4.71-5.14.12-2.71 2.43-4.83 5.14-4.71l72.98 3.17c2.71.12 4.83 2.43 4.71 5.14-.12 2.71-2.43 4.83-5.14 4.71z"/></g></g><g fill="#e3e5fc"><path d="m779.81 329.24-62.56-2.72c-4.21-.18-7.5-3.78-7.32-7.99.18-4.21 3.78-7.5 7.99-7.32l62.56 2.72c4.21.18 7.5 3.78 7.32 7.99-.19 4.21-3.79 7.5-7.99 7.32z"/><path d="m786.05 359.81-62.56-2.72c-4.21-.18-7.5-3.78-7.32-7.99.18-4.21 3.78-7.5 7.99-7.32l62.56 2.72c4.21.18 7.5 3.78 7.32 7.99-.19 4.21-3.78 7.51-7.99 7.32z"/><path d="m797.14 391.2-62.56-2.72c-4.21-.18-7.5-3.78-7.32-7.99.18-4.21 3.78-7.5 7.99-7.32l62.56 2.72c4.21.18 7.5 3.78 7.32 7.99-.18 4.21-3.78 7.5-7.99 7.32z"/></g></svg>